<svg data-v-423bf9ae="" xmlns="http://www.w3.org/2000/svg" viewBox="0 0 548.9518732180519 60" class="font"><!----><!----><!----><g data-v-423bf9ae="" id="f0f64ddd-d38c-472e-af54-f152774455a8" fill="black" transform="matrix(5.665722297967836,0,0,5.665722297967836,-4.362598628190312,-22.26628924765994)"><path d="M4.87 14.52C6.57 14.52 7.74 13.66 8.40 12.25L7.13 11.48C6.78 12.43 6.03 13.10 4.87 13.10C3.37 13.10 2.45 12.01 2.45 10.21L2.45 8.72C2.45 6.92 3.37 5.82 4.87 5.82C6.01 5.82 6.69 6.43 7.03 7.35L8.36 6.62C7.70 5.17 6.57 4.41 4.87 4.41C2.32 4.41 0.77 6.19 0.77 9.46C0.77 12.74 2.32 14.52 4.87 14.52ZM12.82 14.52C14.85 14.52 16.17 13.03 16.17 10.71C16.17 8.39 14.85 6.90 12.82 6.90C10.79 6.90 9.48 8.39 9.48 10.71C9.48 13.03 10.79 14.52 12.82 14.52ZM12.82 13.26C11.79 13.26 11.09 12.61 11.09 11.33L11.09 10.09C11.09 8.81 11.79 8.16 12.82 8.16C13.86 8.16 14.56 8.81 14.56 10.09L14.56 11.33C14.56 12.61 13.86 13.26 12.82 13.26ZM19.39 14.35L19.39 9.48C19.39 8.62 20.17 8.22 20.97 8.22C21.91 8.22 22.34 8.79 22.34 9.93L22.34 14.35L23.87 14.35L23.87 9.73C23.87 7.94 22.99 6.90 21.50 6.90C20.38 6.90 19.77 7.49 19.46 8.27L19.39 8.27L19.39 7.07L17.86 7.07L17.86 14.35ZM29.33 14.35L29.33 13.10L27.92 13.10L27.92 8.32L29.44 8.32L29.44 7.07L27.92 7.07L27.92 5.08L26.54 5.08L26.54 6.36C26.54 6.86 26.38 7.07 25.87 7.07L25.26 7.07L25.26 8.32L26.39 8.32L26.39 12.77C26.39 13.76 26.95 14.35 28 14.35ZM32.62 14.35L32.62 9.70C32.62 8.95 33.29 8.54 34.50 8.54L35.10 8.54L35.10 7.07L34.69 7.07C33.53 7.07 32.90 7.73 32.69 8.47L32.62 8.47L32.62 7.07L31.09 7.07L31.09 14.35ZM42.53 14.35L42.53 13.10L41.76 13.10L41.76 9.45C41.76 7.83 40.71 6.90 38.84 6.90C37.42 6.90 36.57 7.50 36.09 8.32L37.00 9.14C37.37 8.57 37.88 8.15 38.74 8.15C39.76 8.15 40.24 8.67 40.24 9.55L40.24 10.16L38.92 10.16C36.89 10.16 35.81 10.91 35.81 12.35C35.81 13.66 36.67 14.52 38.16 14.52C39.23 14.52 40.01 14.04 40.29 13.13L40.36 13.13C40.46 13.85 40.88 14.35 41.68 14.35ZM38.60 13.36C37.84 13.36 37.37 13.02 37.37 12.38L37.37 12.12C37.37 11.49 37.88 11.14 38.95 11.14L40.24 11.14L40.24 12.19C40.24 12.91 39.54 13.36 38.60 13.36ZM46.84 14.52C48.24 14.52 49.24 13.86 49.71 12.67L48.55 12.05C48.24 12.78 47.73 13.26 46.84 13.26C45.72 13.26 45.15 12.49 45.15 11.37L45.15 10.07C45.15 8.95 45.72 8.18 46.84 8.18C47.67 8.18 48.19 8.61 48.40 9.28L49.66 8.69C49.22 7.62 48.30 6.90 46.84 6.90C44.74 6.90 43.54 8.39 43.54 10.71C43.54 13.03 44.74 14.52 46.84 14.52ZM54.52 14.35L54.52 13.10L53.10 13.10L53.10 8.32L54.63 8.32L54.63 7.07L53.10 7.07L53.10 5.08L51.73 5.08L51.73 6.36C51.73 6.86 51.56 7.07 51.06 7.07L50.44 7.07L50.44 8.32L51.58 8.32L51.58 12.77C51.58 13.76 52.14 14.35 53.19 14.35ZM62.62 14.52C64.86 14.52 66.16 13.30 66.16 11.48C66.16 9.93 65.28 9.06 63.34 8.68L62.47 8.50C61.42 8.29 60.91 7.94 60.91 7.13C60.91 6.27 61.56 5.81 62.68 5.81C63.76 5.81 64.46 6.23 64.96 6.89L66.07 5.91C65.31 4.94 64.23 4.41 62.76 4.41C60.69 4.41 59.35 5.47 59.35 7.21C59.35 8.76 60.31 9.65 62.20 10.00L63.07 10.15C64.20 10.37 64.60 10.81 64.60 11.56C64.60 12.50 63.95 13.12 62.71 13.12C61.64 13.12 60.83 12.68 60.14 11.84L59.05 12.87C59.86 13.87 60.98 14.52 62.62 14.52ZM67.96 14.35L69.48 14.35L69.48 9.46C69.48 8.62 70.27 8.22 71.06 8.22C72.00 8.22 72.44 8.79 72.44 9.91L72.44 14.35L73.96 14.35L73.96 9.73C73.96 7.94 73.08 6.90 71.60 6.90C70.48 6.90 69.86 7.49 69.55 8.27L69.48 8.27L69.48 3.99L67.96 3.99ZM76.85 5.77C77.48 5.77 77.74 5.43 77.74 4.97L77.74 4.73C77.74 4.27 77.48 3.93 76.85 3.93C76.22 3.93 75.94 4.27 75.94 4.73L75.94 4.97C75.94 5.43 76.22 5.77 76.85 5.77ZM76.08 14.35L77.60 14.35L77.60 7.07L76.08 7.07ZM82.64 14.52C84 14.52 85.06 13.93 85.61 13.05L84.71 12.17C84.29 12.84 83.69 13.26 82.80 13.26C81.56 13.26 80.88 12.46 80.88 11.34L80.88 11.10L85.88 11.10L85.88 10.53C85.88 8.51 84.78 6.90 82.64 6.90C80.57 6.90 79.30 8.39 79.30 10.71C79.30 13.03 80.57 14.52 82.64 14.52ZM82.64 8.09C83.65 8.09 84.27 8.83 84.27 9.95L84.27 10.09L80.88 10.09L80.88 10.00C80.88 8.88 81.59 8.09 82.64 8.09ZM90.10 14.35L90.10 13.10L89.10 13.10L89.10 3.99L87.57 3.99L87.57 12.84C87.57 13.78 88.09 14.35 89.12 14.35ZM96.14 14.35L97.66 14.35L97.66 3.99L96.14 3.99L96.14 8.27L96.07 8.27C95.76 7.41 94.99 6.90 94.02 6.90C92.19 6.90 91.13 8.32 91.13 10.71C91.13 13.10 92.19 14.52 94.02 14.52C94.99 14.52 95.76 14 96.07 13.15L96.14 13.15ZM94.49 13.20C93.44 13.20 92.74 12.46 92.74 11.34L92.74 10.08C92.74 8.96 93.44 8.22 94.49 8.22C95.41 8.22 96.14 8.72 96.14 9.46L96.14 11.96C96.14 12.70 95.41 13.20 94.49 13.20Z"></path></g><!----><!----></svg>